<svg width="16" height="16" viewBox="0 0 16 16" fill="none" xmlns="http://www.w3.org/2000/svg">
<path fill-rule="evenodd" clip-rule="evenodd" d="M7.99999 5.33335C8.73332 5.33335 9.33332 4.73335 9.33332 4.00002C9.33332 3.26669 8.73332 2.66669 7.99999 2.66669C7.26666 2.66669 6.66666 3.26669 6.66666 4.00002C6.66666 4.73335 7.26666 5.33335 7.99999 5.33335ZM7.99999 6.66669C7.26666 6.66669 6.66666 7.26669 6.66666 8.00002C6.66666 8.73335 7.26666 9.33335 7.99999 9.33335C8.73332 9.33335 9.33332 8.73335 9.33332 8.00002C9.33332 7.26669 8.73332 6.66669 7.99999 6.66669ZM6.66666 12C6.66666 11.2667 7.26666 10.6667 7.99999 10.6667C8.73332 10.6667 9.33332 11.2667 9.33332 12C9.33332 12.7334 8.73332 13.3334 7.99999 13.3334C7.26666 13.3334 6.66666 12.7334 6.66666 12Z" fill="#172B4D"/>
</svg>
